<?xml version="1.0" encoding="UTF-8"?>
<svg id="b" data-name="Layer 2" xmlns="http://www.w3.org/2000/svg" viewBox="0 0 443.12 137.51">
  <defs>
    <style>
      .d {
        fill: #f5f5f5;
      }

      .d, .e, .f, .g, .h, .i {
        stroke: #000;
        stroke-miterlimit: 10;
      }

      .e {
        fill: #ed6e6e;
      }

      .f {
        fill: #e0e0e0;
      }

      .g {
        fill: #ccc;
      }

      .h {
        fill: #9c4848;
      }

      .j {
        fill: #f9f9f9;
        font-family: PlayfairDisplayRoman-Bold, 'Playfair Display';
        font-size: 50px;
        font-variation-settings: 'wght' 700;
        font-weight: 700;
      }

      .i {
        fill: #f94141;
        stroke-width: 1.5px;
      }

      .k {
        fill: #bdbdbd;
        stroke-width: 0px;
      }
    </style>
  </defs>
  <g id="c" data-name="OBJECTS">
    <g>
      <path class="i" d="M441.47,34.2c-14.01,14.83-27.81,29.45-41.73,44.18,13.84,14.63,27.66,29.25,41.64,44.04-116.44,0-233.11.03-349.49.03M91.88,122.44c0-23,.01-35.73.02-58.73,0-6.2,0-12.4,0-18.6,0-6.37,4.43-10.8,10.77-10.8,41.66-.04,297.13-.11,338.79-.12"/>
      <g>
        <circle class="d" cx="67.6" cy="75.09" r="54.86"/>
        <circle class="f" cx="67.6" cy="75.09" r="38.79"/>
        <path class="k" d="M34.1,75.09c0-20.56,16.01-37.38,36.25-38.68-.91-.06-1.82-.11-2.74-.11-21.42,0-38.79,17.37-38.79,38.79s17.37,38.79,38.79,38.79c.92,0,1.84-.04,2.74-.11-20.24-1.3-36.25-18.12-36.25-38.68Z"/>
      </g>
      <text class="j" transform="translate(154.55 93.55)"><tspan x="0" y="0">Confirm</tspan></text>
      <g>
        <path class="g" d="M92.56,92.52l-6.9,7.16-30.11-29.14c-4.38-4.22-10.9,1.26-10.9,1.26,0,0-54.99-53-42.22-66.25l90.13,86.97Z"/>
        <path class="e" d="M68.74,67.24c-.43-.41-1.1-.4-1.52.03l-7.6,7.88c-.41.43-.4,1.1.03,1.52l57.05,57.82c3.35,3.39,8.84,3.36,12.15-.07,3.31-3.43,3.14-8.91-.36-12.13l-59.76-55.04ZM124.03,129.78c-1.16,1.19-3.06,1.22-4.25.06s-1.22-3.06-.06-4.25,3.06-1.22,4.25-.06,1.22,3.06.06,4.25Z"/>
        <g>
          <path class="h" d="M124.54,129.05c.26-.14.5-.31.72-.53,1.16-1.19,1.13-3.09-.06-4.25s-3.09-1.13-4.25.06c-.22.22-.38.47-.51.74,1.13-.61,2.56-.47,3.53.47s1.15,2.37.57,3.51Z"/>
          <path class="h" d="M119.48,131.63l-57.8-57.05c-.43-.41-.44-1.09-.03-1.52l5.63-5.84s-.05.02-.06.04l-7.6,7.88c-.41.43-.4,1.1.03,1.52l57.05,57.82c3.35,3.39,8.84,3.36,12.15-.07.47-.49.85-1.03,1.18-1.59-3.29,2.08-7.7,1.7-10.56-1.2Z"/>
        </g>
      </g>
      <g>
        <g>
          <rect class="g" x="55.69" y="59.25" width="47.54" height="8.94" transform="translate(-21.84 74.33) rotate(-44.7)"/>
          <path class="g" d="M142.76,13.1h0c-.58-.59-1.53-.59-2.12-.01l-24.03,25.73c-.67.67-1.76.66-2.43-.01s-.66-1.76.01-2.43l24.61-25.14c.59-.58.59-1.53.01-2.12l-.2-.2c-.58-.59-1.53-.59-2.12-.01l-24.61,25.14c-.67.67-1.76.66-2.43-.01s-.66-1.76.01-2.43l25.34-24.41c.59-.58.59-1.53.01-2.12l-.2-.2c-.58-.59-1.53-.59-2.12-.01l-25.34,24.41c-.67.67-1.76.66-2.43-.01s-.66-1.76.01-2.43l26.02-23.72c.59-.58.59-1.53.01-2.12l-.06-.06c-.57-.57-1.48-.59-2.08-.05l-35.91,30.88c-5.11,5.06-5.15,13.3-.1,18.41l.45.46c5.06,5.11,13.3,5.15,18.41.1l31.29-35.55c.55-.59.54-1.51-.03-2.08Z"/>
        </g>
        <path class="e" d="M75.72,75.7c.38-.37.38-.99,0-1.36l-6.92-6.99c-.37-.38-.99-.38-1.36,0L8.07,123.63c-3.11,2.95-3.19,7.88-.17,10.93s7.95,3.02,10.93-.06l56.9-58.79ZM12.74,129.75c-1.17-1.18-1.16-3.08.02-4.25s3.08-1.16,4.25.02,1.16,3.08-.02,4.25-3.08,1.16-4.25-.02Z"/>
        <g>
          <path class="h" d="M10.3,125.88l58.8-56.88c.38-.37.99-.37,1.36,0l-1.65-1.67c-.37-.38-.99-.38-1.36,0L8.07,123.63c-3.11,2.95-3.19,7.88-.17,10.93.38.39.8.72,1.24,1.01-1.95-3.02-1.54-7.11,1.17-9.68Z"/>
          <path class="h" d="M13.44,130.26c.13.25.29.49.5.7,1.17,1.18,3.07,1.19,4.25.02s1.19-3.07.02-4.25c-.21-.21-.45-.37-.7-.51.61,1.14.44,2.59-.52,3.55s-2.42,1.11-3.55.49Z"/>
        </g>
      </g>
    </g>
  </g>
</svg>