<?xml version="1.0" encoding="utf-8"?>
<!-- Generator: Adobe Illustrator 28.3.0, SVG Export Plug-In . SVG Version: 6.00 Build 0)  -->
<svg version="1.1" id="Layer_1" xmlns="http://www.w3.org/2000/svg" xmlns:xlink="http://www.w3.org/1999/xlink" x="0px" y="0px"
	 viewBox="0 0 553 532" style="enable-background:new 0 0 553 532;" xml:space="preserve">
<style type="text/css">
	.st0{fill:#EDAFB8;}
	.st1{fill:#212525;}
	.st2{fill:#FFFFFF;}
</style>
<g>
	<path class="st0" d="M84,423l140.9-319.2h88.9L455.2,423h-93.9L250.9,148h35.6L176.1,423H84z M161.1,361l23.3-66.6h156l23.3,66.6
		H161.1z"/>
</g>
<g>
	<path class="st1" d="M343.2,363.6c-59.3-88-123.1,8-161.8-3.5c17.7,13.2,28.9,17.6,53,14.9c-7.8-2.2-11.7-3.4-13.7-5.7
		c7.5,0.5,13.8,1.4,25.1,0c-6.7-1-12.4-2.5-16.5-4c7.2-1.5,13.3-2.3,23.9-1.7c-4.4-1.9-7.2-3.1-12.5-5.2
		C278.7,330.2,301.9,336.7,343.2,363.6z"/>
	<path class="st1" d="M223.6,271l-79.2,46c59.3,110.4,126.5-100.6,232.5,47.7c0.1-22.5-1.2-35.2-6.8-58.1
		c43.3,49.7,47.7,83.4,38.7,148.3c35-47,44.4-81,34.8-161.6c16.6,11.1,21.2,22.9,22.2,52.3c7.4-71.3,0.2-107.5-72.4-152.4
		c-0.6,18.2-3.3,25.9-12.5,35.1c7.4-68.1-7-96-66.7-126.5C324.4,225,229.3,162.4,223.6,271z"/>
	<path class="st1" d="M267.5,187.1v-67.3c21.7,15.5,31.9,26.4,36.5,36.8C302.8,173.3,280.6,177.9,267.5,187.1z"/>
	<path class="st2" d="M262.3,243.4c-3.4,2.9-6.4,8.9-5.7,18.4c19.1-1.3,23.8-8.2,23.9-28.7C277.6,233.5,262.2,242.6,262.3,243.4z"/>
</g>
</svg>
