<?xml version="1.0" encoding="UTF-8"?>
<svg width="215px" height="185px" viewBox="0 0 215 185" version="1.1" xmlns="http://www.w3.org/2000/svg" xmlns:xlink="http://www.w3.org/1999/xlink">
    <title>Group 7</title>
    <defs>
        <polygon id="path-1" points="0.377138013 0.156625594 133.985624 0.156625594 133.985624 148.202878 0.377138013 148.202878"></polygon>
    </defs>
    <g stroke="none" stroke-width="1" fill="none" fill-rule="evenodd">
        <g>
            <ellipse fill="#002855" cx="106" cy="82.8051773" rx="75" ry="74.9830508"></ellipse>
            <path d="M165.843051,104.356416 C158.773324,105.663844 159.893837,117.75061 166.498655,118.501574 C176.446532,119.649047 175.81532,102.492523 165.843051,104.356416" fill="#002855"></path>
            <path d="M164.767551,86.0989778 C160.992842,86.7583243 158.353428,91.6395905 160.347586,96.8167366 C161.731966,99.2070551 163.723907,100.995851 167.836396,100.618868 C176.084288,97.8387987 173.311092,84.6210806 164.767551,86.0989778" fill="#002855"></path>
            <path d="M175.42861,97.2900692 C174.977744,96.5203311 174.400488,96.0802662 173.727145,95.5756183 C172.053767,94.286964 168.249493,94.2156225 166.620462,95.5756183 C162.726754,97.9546724 162.76371,106.283615 166.963416,108.299202 C173.487669,112.098329 179.099103,103.556864 175.42861,97.2900692" fill="#002855"></path>
            <path d="M171.639118,83.4515292 C171.639118,120.045256 142.439262,149.711339 106.42172,149.711339 C70.4034396,149.711339 41.2058006,120.045256 41.2058006,83.4515292 C41.2058006,46.8555497 70.4034396,17.1902172 106.42172,17.1902172 C142.439262,17.1902172 171.639118,46.8555497 171.639118,83.4515292" fill="#002855"></path>
            <path d="M168.564212,83.4515292 C168.564212,118.319541 140.739867,146.585076 106.421573,146.585076 C72.1025392,146.585076 44.2811502,118.319541 44.2811502,83.4515292 C44.2811502,48.5805141 72.1025392,20.3142276 106.421573,20.3142276 C140.739867,20.3142276 168.564212,48.5805141 168.564212,83.4515292" fill="#FF6A16"></path>
            <path d="M167.813557,98.896156 L167.773644,98.7639864 L167.813557,98.896156 Z" fill="#282780"></path>
            <g transform="translate(36.105397, 0.000000)">
                <mask id="mask-2" fill="white">
                    <use xlink:href="#path-1"></use>
                </mask>
                <g></g>
                <path d="M133.179239,87.0406116 L133.005545,86.9444882 L132.84959,86.8220811 C132.474115,86.531458 132.018814,86.323441 131.454862,86.1837617 L130.156959,85.8683568 L129.71718,84.5872121 C124.861131,70.4187736 119.741954,54.0740413 114.792776,38.271505 C112.012928,29.3898533 109.139951,20.2093179 106.40519,11.7376926 C105.98315,10.4174978 105.623935,9.08303474 105.277286,7.79212756 C104.643856,5.44311204 104.051078,3.22251138 103.21365,1.68754088 C102.624568,0.599393992 101.831487,0.156325209 100.481106,0.156325209 C98.1181251,0.156325209 95.0699752,1.60042906 93.0499477,2.55490435 C86.9115179,5.46263711 81.1234332,9.369903 76.732294,13.5715468 C76.0012997,14.4539295 75.1912192,15.2814919 74.3160957,16.0256973 C67.3372812,23.6186947 63.3341824,32.5776957 62.0806271,43.4103519 L61.6814998,46.8873154 L58.5816112,45.3530959 C53.7307365,42.9447542 47.4348732,41.571992 39.8684547,41.2671006 L37.6252115,41.2671006 C35.2910561,41.6868895 34.6864521,42.8576424 34.5378881,44.4894873 L34.5378881,49.1950279 C34.9710151,56.9014209 36.2785265,63.4070224 38.4301182,68.5225894 L38.9364186,69.7286376 L38.2482936,70.8310529 C36.9784775,72.8594067 35.5017066,74.6316819 34.0722396,76.3513895 C31.7129539,79.1877807 29.4867106,81.8657184 28.3809802,85.4200312 C28.3100242,85.6438185 28.2398074,86.0418295 28.2501551,86.3061688 C28.2582855,86.5044233 28.2582855,86.5397186 28.7172819,87.1622678 L29.9974457,88.8969947 L28.4704143,90.4222027 L28.1555472,90.7331018 L27.4142052,91.4728014 L26.3735178,91.4435138 L25.2729613,91.4074675 C23.6136265,91.3533981 21.546295,91.2873133 19.9061776,91.2873133 C19.3902686,91.2873133 18.9098376,91.293321 18.4996235,91.3083403 L16.7198114,91.376678 L16.1078163,89.6757445 C15.0065206,86.5870294 12.1542388,86.2566052 10.9790307,86.2566052 C8.99152464,86.2566052 7.05871382,87.0864204 5.79998463,88.4802097 C4.64399376,89.7598524 4.14064991,91.3864405 4.30251819,93.3096594 L4.42669113,94.7552652 L3.24704827,95.5723141 C1.16123865,97.0239276 -0.391662124,101.555245 0.780589487,104.769371 C0.889979927,105.062998 1.25141186,105.498557 1.59880042,105.920599 C2.26179518,106.721877 3.08739735,107.718406 3.37048208,109.095675 C3.58113259,110.121491 3.43330767,111.048181 3.31504773,111.790884 C3.27587413,112.048465 3.21452679,112.437464 3.2270919,112.564377 C3.63508868,116.111932 6.28706774,118.684734 9.52738997,118.684734 L9.64121516,118.684734 C11.7196335,118.643431 12.6117569,117.784328 14.2245268,116.225327 C14.5837413,115.875378 14.9540428,115.517919 15.35317,115.158207 L16.3406405,114.262307 L17.6178478,114.610003 C19.9143079,115.243066 22.2100289,115.88514 24.5220107,116.536226 C28.2095033,117.568051 32.0248645,118.643431 35.9082251,119.666244 C36.2859178,119.765372 36.7449141,119.869005 37.2401276,119.975642 C40.1929304,120.625976 42.2055667,121.164418 43.1989501,122.680614 C44.5663306,124.774302 43.5581647,127.844994 42.5832593,130.812804 C42.4620429,131.183029 42.3467395,131.530725 42.2447403,131.848383 C41.412486,134.542091 40.5381016,137.315401 39.6622389,140.074443 L51.0181492,145.163726 L64.601042,148.202878 L79.045754,147.274686 L92.7535587,144.406004 L108.868692,135.205192 L118.663571,125.253417 L128.893056,109.624353 L131.708382,93.9194422 L133.985624,87.5700413 C133.746148,87.3860551 133.485237,87.2080766 133.179239,87.0406116" fill="#002855" mask="url(#mask-2)"></path>
            </g>
            <path d="M122.969537,137.24849 C122.758148,140.692411 121.849025,143.943335 120.398123,146.75945 L122.718974,146.585226 L133.122892,142.266432 C132.228551,139.388738 131.336428,136.514047 130.438392,133.632598 C129.641615,131.077068 128.64084,128.448694 128.476755,126.400815 C127.850716,118.572766 133.338716,117.04155 138.613849,115.563653 C144.876451,113.813156 150.186323,112.70248 156.570881,110.684639 C147.028043,112.753545 145.431534,97.493956 153.370471,95.8703717 C153.370471,95.8703717 146.843262,95.7164241 144.659888,95.6923932 C141.794302,95.6653585 138.580588,95.1209096 135.946348,95.6923932 C134.873878,95.9214373 133.519802,97.0238525 132.214508,97.6771912 C128.274974,99.6612382 123.968095,101.374187 119.768389,102.555454 C122.427759,106.47098 122.969537,112.132498 122.969537,118.271629 C122.969537,124.419021 123.337622,131.243782 122.969537,137.24849" fill="#FF6A16"></path>
            <path d="M79.9357078,117.373626 C82.8789019,118.883815 84.9166684,123.028385 84.2011958,127.127898 C83.4731581,131.361082 81.3991745,136.128953 79.9357078,140.856272 C79.8048827,141.282068 79.6747968,141.695099 79.54545,142.117891 L83.0104661,144.23561 L91.5192685,145.950061 C90.4157554,143.584524 89.7261522,140.981683 89.5384145,138.330029 C89.2501559,134.265811 89.5384145,129.633114 89.5384145,125.139345 C89.5384145,115.852924 88.9116369,107.473667 92.7417805,102.555604 C88.6780735,101.390859 84.9004077,99.8416197 81.3600009,98.2187865 C80.4035736,97.7832273 79.5469282,97.2230081 78.6939785,96.7746826 C77.9238106,96.3759207 77.1625123,95.8645142 76.2053459,95.6925434 C71.4727311,94.8319386 59.6674331,95.8705219 59.6674331,95.8705219 C68.4024076,97.8590747 65.7748196,113.483632 55.580074,110.506811 C61.4280279,112.36019 67.9256722,113.953736 73.8918859,115.563803 C75.9570001,116.119516 78.2970685,116.52729 79.9357078,117.373626" fill="#FF6A16"></path>
            <path d="M136.838915,69.8557008 L137.191477,70.2176654 C138.704465,72.0334965 140.442147,74.570253 142.706825,77.6289295 C144.562028,80.1266359 147.344093,82.6656453 147.68409,85.0364388 C148.211086,88.6951356 144.487376,89.4160611 142.706825,91.1755698 C142.655086,91.4691968 142.443697,91.4601852 142.883476,91.5367835 C147.295311,92.3335564 153.857998,91.0854541 158.354093,91.3580541 C158.639395,90.2158378 158.731046,89.5685068 159.238825,88.644821 C159.870776,87.5191259 161.907065,86.3694 162.085194,85.2129154 C162.29141,83.9069889 160.609162,80.7679592 160.131687,79.2555176 C158.173007,73.0713288 156.184762,66.1985059 154.437472,60.828362 L139.683805,60.828362 C139.102854,64.2092022 137.858907,66.9194314 136.838915,69.8557008" fill="#FF6A16"></path>
            <path d="M118.878335,55.7663387 C117.446651,53.9662779 115.519014,52.5852551 113.542595,51.0690587 C111.391003,49.4169378 108.741241,46.9793085 105.185313,47.4554197 C100.470437,48.0899843 96.7629879,52.9742545 93.6276214,55.5823526 C100.94052,58.1236149 111.393959,58.2760606 118.878335,55.7663387" fill="#FF6A16"></path>
            <path d="M130.083612,61.5474101 C131.463557,62.9089079 132.416289,64.7142255 133.993581,65.8812236 C135.889435,60.2857905 137.032861,53.9161136 137.191773,46.5529111 L137.191773,45.6502524 L135.416396,45.6502524 C128.918012,45.9776727 123.405621,47.3001204 118.704049,49.4426208 C120.022648,50.9963654 121.358246,52.529083 123.146927,53.5962029 C125.387953,52.6229535 128.05841,52.0815084 131.322385,52.1543519 C131.616556,52.4081778 131.57073,53.613475 131.548557,54.2570512 C131.446557,57.1715427 130.810171,59.4056607 130.083612,61.5474101" fill="#FF6A16"></path>
            <path d="M74.9567427,49.4428461 C75.3240877,55.7013804 76.423166,61.2036939 78.1593696,66.0631822 C79.7861829,64.8841686 80.8527397,63.1404301 82.0693387,61.5476354 C81.0308687,59.1663284 80.3612218,55.4543132 80.8253921,52.1545772 C84.2852343,52.0719712 87.0170388,52.7253099 89.361542,53.7819163 C90.6697926,52.2777353 92.2796059,51.0852044 93.6277692,49.6215755 C88.9018065,47.3213726 83.2312426,45.9793999 76.5606431,45.6497267 L74.7823093,45.6497267 C74.7823093,45.6497267 74.8480914,48.8345652 74.9567427,49.4428461" fill="#FF6A16"></path>
            <path d="M136.481622,3.73819839 C127.952124,6.15179681 121.597131,10.7747314 115.680439,15.8399839 C114.980488,16.6968338 114.21032,17.4815913 113.366979,18.1912523 C110.636652,21.5578241 107.833153,24.8508014 106.075514,29.2116496 L144.484124,29.2116496 C141.778189,20.7565454 139.070776,12.3051961 136.481622,3.73819839" fill="#FF6A16"></path>
            <path d="M165.464102,89.5501833 C163.490639,89.8941248 162.112911,92.4451496 163.154337,95.1501221 C163.87794,96.3997263 164.919367,97.3339255 167.067263,97.1379239 C171.377099,95.6848085 169.927675,88.7781922 165.464102,89.5501833" fill="#FEFEFE"></path>
            <path d="M121.010562,67.1492264 C119.088099,66.7121653 116.499684,66.7144182 114.784176,67.3317106 C111.58968,68.4739269 111.52168,73.9942636 114.963044,75.0974298 C116.476032,75.5855564 119.852353,75.8408842 121.721599,74.9179493 C124.426056,73.5797314 124.252362,68.0413716 121.010562,67.1492264" fill="#FEFEFE"></path>
            <path d="M45.4422411,99.4857379 C41.1900573,94.2672888 36.478138,103.999032 41.7052271,105.627873 C42.890783,105.9996 43.656516,105.603091 44.7252902,105.086428 C46.0926707,104.263371 46.7815348,100.929091 45.4422411,99.4857379" fill="#FEFEFE"></path>
            <path d="M139.855356,60.1027055 L139.679445,60.8281368 L154.436806,60.8281368 L154.258677,60.2859407 C151.03092,49.8963532 147.752163,39.5525746 144.480798,29.2117997 L106.068493,29.2117997 C103.904336,33.2685075 102.145958,38.7122458 101.984829,44.2025439 C102.86217,43.7144173 103.975292,43.4553347 105.183021,43.2998851 C105.83419,43.1917463 106.587358,43.2232868 107.139484,43.2998851 C110.542414,43.7579732 112.80044,45.3793045 115.140508,46.9127731 C120.250076,43.4313038 127.314629,41.9391383 135.412478,41.4960695 C136.527078,41.4562684 136.940249,41.4562684 138.439933,41.4960695 C140.122919,41.7634127 141.06826,42.7944863 141.281867,44.5675124 C141.343214,45.410845 141.309214,46.1392802 141.312171,46.7648332 C141.22865,51.6806438 140.651393,55.9130771 139.855356,60.1027055" fill="#FEFEFE"></path>
            <path d="M140.214793,81.0570804 C132.861981,80.5171372 124.288875,80.856573 116.918324,80.6973686 C105.982237,80.4623169 106.18254,62.1297827 116.388372,61.184319 C118.704789,60.9725471 121.305029,61.1257438 123.678358,61.0040876 C122.897103,59.2092836 118.933178,55.7713702 118.874048,55.7713702 C111.392629,58.2765862 100.939929,58.1233896 93.6277692,55.5828782 L88.5470267,60.8831824 C90.1745791,60.9830606 92.9307747,60.7705378 95.227974,61.184319 C105.833673,62.8950151 105.645196,80.6095058 94.694326,80.6973686 C87.58173,81.1164065 79.6989662,80.7566948 72.2899812,80.876849 C71.2884674,82.5154525 70.0289991,83.883709 69.0910499,85.576382 C78.1327611,92.5235503 88.1116823,98.5282587 102.515003,100.02493 C103.348736,100.147337 104.092295,100.189391 105.183243,100.21192 L107.314878,100.21192 C108.600216,100.154847 109.032604,100.147337 109.809424,100.02493 C124.214223,98.4636758 134.462186,92.6820037 143.240769,85.3946487 C142.282124,83.8904677 141.182307,82.5454911 140.214793,81.0570804 M103.407866,77.9841355 C104.681378,77.8324408 107.113837,77.8166705 108.379218,77.9841355 C112.629184,78.5706384 112.733401,85.8497329 108.03109,86.1155741 C106.639319,86.1974292 105.368024,86.1553752 103.764863,86.1155741 C99.018944,86.0089372 98.9391186,78.5308373 103.407866,77.9841355 M113.210875,90.5432581 C113.02166,100.008409 98.3433841,100.062478 98.3219495,90.6844394 C98.2864715,89.9357282 98.3219495,89.1539746 98.4298617,88.4683445 L98.7794676,88.1056288 C103.04939,87.8052432 108.563999,87.8052432 112.832444,88.1056288 L113.18205,88.4683445 C113.244136,89.1539746 113.210875,89.7810296 113.210875,90.5432581" fill="#FEFEFE"></path>
            <path d="M89.5385624,138.330179 C89.7248218,140.980331 90.4055555,143.582421 91.5053729,145.947207 L102.283288,148.119746 L120.414014,146.758248 C121.86122,143.942133 122.755561,140.684451 122.969907,137.242783 C123.335035,131.246335 122.969907,124.420072 122.969907,118.274182 C122.969907,112.135802 122.42739,106.473533 119.768019,102.559509 C111.919255,104.837934 100.573693,104.879237 92.7374936,102.559509 C88.9110456,107.477572 89.5385624,115.853074 89.5385624,125.139496 C89.5385624,129.637019 89.2503038,134.270467 89.5385624,138.330179" fill="#FEFEFE"></path>
            <path d="M96.6555192,67.3317857 C95.4256159,66.9337748 92.7869411,66.7858349 90.9620424,67.1455466 C89.5983575,67.4151427 88.5754091,68.5228147 88.2938026,69.1363523 C85.9847774,74.1167458 91.9354695,76.848753 96.8284744,75.0975049 C99.9756669,73.9718098 99.6615389,68.2960235 96.6555192,67.3317857" fill="#FEFEFE"></path>
            <path d="M50.0596263,92.4407189 C49.6730642,91.0056267 48.9028963,89.8228583 47.7506011,89.5502584 C43.1295941,88.4763798 41.6395189,95.5624765 45.6123136,96.9600205 C48.6641591,97.8176215 50.5592746,95.1854925 50.0596263,92.4407189" fill="#FEFEFE"></path>
            <path d="M59.667507,95.8728499 L53.2637315,95.8728499 C49.4557615,96.7349566 46.9723029,101.600453 48.639768,105.991339 C49.6553252,108.658013 52.6687362,109.942161 55.5749741,110.506886 C65.7704588,113.488964 68.399525,97.8606517 59.667507,95.8728499" fill="#FEFEFE"></path>
            <path d="M159.953189,95.8728499 L159.419541,95.8728499 L153.370545,95.8728499 C145.431608,97.4941813 147.028117,112.755272 156.570955,110.685616 C159.574757,110.013503 162.659863,108.955394 163.86168,106.353304 C165.810012,102.141147 163.316945,97.2508689 159.953189,95.8728499" fill="#FEFEFE"></path>
            <path d="M172.931182,99.4857379 C172.69614,99.0809683 172.39236,98.8504223 172.039059,98.585332 C171.160979,97.9087134 169.164603,97.8711652 168.308697,98.585332 C166.265017,99.8334342 166.285713,104.206298 168.488304,105.262904 C171.913407,107.257465 174.85808,102.77496 172.931182,99.4857379" fill="#FEFEFE"></path>
            <path d="M45.0856874,107.616576 C40.5592883,108.353271 41.7463224,115.962039 46.3318514,115.200562 C47.7199274,114.970767 48.4257914,113.744442 48.9971347,112.30935 C49.1464379,109.269448 48.0170555,107.527211 45.0856874,107.616576" fill="#FEFEFE"></path>
            <path d="M166.53598,107.616576 C162.744271,108.317976 163.345919,114.798796 166.886325,115.200562 C172.220588,115.815601 171.882069,106.617043 166.53598,107.616576" fill="#FEFEFE"></path>
            <path d="M162.797045,114.524844 L161.259665,113.155086 C150.799574,133.046621 130.168389,146.585001 106.421794,146.585001 C82.7461551,146.585001 62.1674481,133.130729 51.6770527,113.339823 L49.1433336,115.153401 C60.2072897,135.741831 81.7076851,149.711264 106.421794,149.711264 C131.218685,149.711264 152.783385,135.64721 163.813341,114.945384 L162.797045,114.524844 Z" fill="#002855"></path>
            <path d="M158.788656,122.505432 C156.190524,120.95338 147.522877,118.431826 132.785714,114.940771 C134.964159,119.441707 136.744051,122.47335 138.125391,124.035699 C147.738514,134.908518 154.797027,138.955796 156.492738,138.955796 C156.892653,138.955796 157.024573,139.319126 157.258044,138.190663 C157.442083,137.301121 158.104144,135.04311 158.406003,133.98243 C159.219094,131.125372 160.515855,128.17784 160.319268,125.565965 C160.198177,123.957137 159.334394,122.831442 158.788656,122.505432 Z" fill="#FD5B02" transform="translate(146.562498, 126.976156) scale(-1, 1) translate(-146.562498, -126.976156) "></path>
            <path d="M12.1836686,184.865414 C5.20901053,184.42135 -1.29088948,179.973391 0.220690706,171.87537 C1.73227089,163.777348 4.77828551,153.443986 7.44275338,145.95395 C10.4170345,137.603043 15.8654119,131.2226 26.2612467,131 L26.2612467,131 L202.46095,131 C209.435608,131.444064 215.935508,135.892023 214.423928,143.990044 C212.912347,152.088066 209.866333,162.421429 207.201865,169.911464 C204.227584,178.262371 198.779206,184.642814 188.383372,184.865414 L188.383372,184.865414 Z" fill="#002855"></path>
            <path d="M22.2906219,162.430893 C20.6930438,165.507164 20.5397909,173.0714 15.4758319,172.354007 C11.8426003,171.835364 15.0079881,165.75475 15.7720472,163.195986 C16.6493003,160.266979 17.428795,157.811186 18.1425049,155.41445 C19.7610313,150.002771 20.2270375,142.5275 26.1432587,143.816536 C27.5714135,146.200021 25.8341804,149.249414 25.4008828,151.595421 L33.9962724,151.595421 C35.2513286,147.802893 37.3784928,141.619307 34.4376553,138.323464 C33.1046863,136.823186 31.2513192,136.406757 28.6640291,136.032729 L25.105035,136.032729 C16.8532699,136.908743 13.4302556,142.218586 11.031867,149.921757 C8.94145419,156.637993 6.2303122,164.871543 4.95945291,171.895936 L4.95945291,173.726329 C5.26412102,177.990179 8.10462752,179.64075 12.3659385,179.8289 L13.8495877,179.8289 C24.8220502,179.485914 28.6673367,171.79675 30.8838064,162.430893 L22.2906219,162.430893 Z M48.5133959,136.951143 C47.4781123,138.730807 46.6519435,140.728529 45.6986152,142.595264 C45.3237522,143.177886 45.1969603,144.016043 44.6614941,144.426036 C43.8731791,146.409371 42.8676641,148.173893 41.9937186,150.071671 C41.6188556,150.656943 41.4946362,151.492071 40.9577,151.902064 C40.167915,153.886157 39.1616649,155.649921 38.2910271,157.549214 C37.9157965,158.12805 37.7930472,158.9681 37.2542734,159.37885 C36.4648559,161.36635 35.4597084,163.127464 34.588703,165.028271 C34.2164126,165.608621 34.0903557,166.444886 33.5497443,166.857907 C32.7599593,168.843136 31.7570169,170.60425 30.8838064,172.505057 C30.5085758,173.085029 30.384724,173.92205 29.8463178,174.33545 C29.2564597,175.913714 28.4471965,177.269757 27.7728105,178.762843 L36.5144702,178.762843 C36.5335808,178.475129 36.6100235,178.2495 36.8073779,178.149936 C37.772099,175.632436 38.8562618,173.241 39.9202114,170.823443 C41.8459785,170.571314 44.8084992,170.571314 46.7350014,170.823443 L46.5868937,171.283029 C46.3575657,173.844064 45.8967047,176.168114 45.5483025,178.608007 C48.1679338,178.963864 51.4229948,178.66025 54.2906972,178.762843 L54.4395399,178.149936 C55.7850043,164.27605 57.4862211,150.771271 58.8820347,136.951143 L48.5133959,136.951143 Z M48.2171805,162.891614 L48.2171805,163.3459 C46.8757588,163.199393 43.1466063,163.681314 43.3292602,163.0438 C45.8077666,156.800021 48.6365126,150.91475 51.1789663,144.728893 C50.5949884,150.588421 49.1381676,156.867786 48.2171805,162.891614 L48.2171805,162.891614 Z M69.3998838,136.951143 C65.2010499,150.833736 61.0036862,164.719357 56.8074249,178.608007 C59.3778095,178.867329 62.9772299,178.858621 65.5461445,178.608007 C67.0268536,173.209579 68.7104298,168.02845 70.2914699,162.738293 C70.5384385,161.872879 72.834291,162.310507 73.5494709,162.430893 C76.5876993,163.049857 74.5204397,168.40475 73.8453187,170.673529 C72.9438098,173.700586 72.059574,175.871693 71.9188166,178.302879 L71.9188166,178.762843 L81.400647,178.762843 L81.5480197,178.456579 C80.7942509,175.744114 81.9695569,172.630743 82.7325135,169.759279 C83.3708832,167.362543 84.0798154,165.10815 84.5094379,162.891614 L84.5094379,161.209621 C84.3719881,159.32055 82.9225176,158.776921 81.6983324,158.007664 C86.6685756,156.433943 90.8718196,148.237493 90.1430417,142.138707 C89.2147044,134.430236 77.4087229,137.6462 69.3998838,136.951143 L69.3998838,136.951143 Z M76.2179814,154.65125 C75.5083142,154.913221 73.0265002,154.887857 72.8081976,154.65125 C73.6571522,151.153629 74.8037921,147.958107 75.7714533,144.579357 C76.1224281,144.325714 77.4914133,144.325714 77.8434906,144.579357 C83.7358234,143.787386 79.5921165,154.556986 76.2179814,154.65125 L76.2179814,154.65125 Z" fill="#FF6A16"></path>
            <g transform="translate(88.808786, 136.804195)" fill="#FEFEFE">
                <path d="M35.5513515,0.147061429 C31.6347675,9.48679714 28.175002,19.3012614 24.145959,28.5281829 C25.6968631,18.8821829 27.7299439,9.73665429 29.3297272,0.147061429 L21.0338606,0.147061429 C16.7975404,9.56554 13.0228164,19.4613971 8.73835205,28.8333114 C10.5641557,19.2164614 13.0338418,9.45348286 14.6648636,0.147061429 C11.9482089,0.246247143 8.83721299,-0.0558528571 6.36826195,0.296975714 C4.20177394,14.0410114 2.08710524,27.8350186 2.84217094e-14,41.6524971 C2.52040284,42.4637757 6.71041637,41.5529329 9.47778782,42.1109471 C13.5127109,32.63379 17.101106,22.69629 21.1838058,13.27024 C19.3109605,22.83939 17.1621131,32.1193114 15.2572942,41.6524971 C17.9261723,42.3615614 21.8706872,41.7569829 25.0349725,41.9587614 C31.1845643,27.9463186 37.6079532,14.2170471 43.7009481,0.147061429 L35.5513515,0.147061429"></path>
                <path d="M49.7745382,0.147061429 C42.908664,14.0292757 35.9781074,27.8520543 29.181693,41.8058186 C31.7509751,42.0632471 35.3529681,42.05454 37.9226177,41.8058186 C38.9950201,39.2504614 40.0865331,36.7106257 41.1802512,34.1753329 C42.8215634,33.5783257 46.109333,33.86074 47.9950412,34.02239 C47.6962533,36.46039 47.2728786,38.7768686 46.9586551,41.1963186 L46.9586551,41.8058186 C47.7352097,42.5709114 54.8656932,41.7569829 55.7010498,41.6524971 C56.3221464,35.7327757 57.0373264,29.9035329 57.6271844,23.9493614 C58.4522507,16.10839 59.6010957,7.77792571 60.1472198,0.147061429 L49.7745382,0.147061429 Z M49.3272752,26.3919043 C48.0924321,26.64744 45.8245106,26.64744 44.5893,26.3919043 C47.1060277,20.1890114 49.9351413,14.29844 52.4401086,8.07926857 C51.791081,13.9728686 50.5062562,20.5342686 49.3272752,26.3919043 L49.3272752,26.3919043 Z"></path>
                <path d="M110.069792,0.147061429 C108.301688,5.29752571 106.830167,10.7481971 105.179667,16.0163971 C103.962097,16.5452614 99.9863432,16.4911257 99.2527877,16.0163971 C100.786051,10.7311614 102.375912,5.49854714 103.995173,0.296975714 C101.426626,0.0456042857 97.8227953,0.0456042857 95.2520432,0.296975714 C91.0447566,14.1735114 86.8411451,28.0523186 82.6610544,41.9587614 L91.4038166,41.9587614 C93.0421887,36.32259 94.7801568,30.7882543 96.4394771,25.1702543 C96.4574852,23.9739686 98.4611651,24.8140186 99.4016303,24.5622686 C100.389137,24.6641043 101.770618,24.3601114 102.513729,24.71559 C100.891527,30.3684186 99.1410638,35.8951829 97.4758632,41.5018257 L97.4758632,41.9587614 C100.241397,42.0579471 103.402742,41.7539543 105.919838,42.1109471 C110.302428,28.2578829 114.45275,14.1735114 118.662242,0.147061429 L110.069792,0.147061429"></path>
                <path d="M79.2744227,12.8082689 C81.22321,13.393005 84.7620387,13.1029992 86.9469358,12.9532718 C87.6253112,10.8679914 88.4072929,7.66702431 87.6570274,5.04679577 C86.9180388,2.09476852 84.8423865,0.52263139 81.5481254,0.210457143 L78.7074066,0.210457143 C75.4304132,0.494284951 73.1087838,1.76224298 71.1758545,3.43213898 C70.7642481,3.98344088 70.2895616,4.47187183 69.7581382,4.89706842 C67.7208978,7.94176672 65.5035795,10.9813772 65.4954742,15.8849478 C65.4834925,21.8794928 70.3959872,23.594089 72.8804268,26.4298231 C74.8299189,28.6532015 73.6941248,33.8453243 70.8942847,34.7814836 C66.0991402,36.3816038 67.5668977,30.4015954 68.6202296,27.8947526 C66.0614331,27.9899676 63.1326136,27.7097739 60.8071077,28.0452068 C60.4321512,30.1453872 59.3245493,32.0700377 59.1046499,34.1956572 C58.5640641,39.4124923 61.6028332,42.168275 66.6340876,42.2533143 L68.0525088,42.2533143 C72.0318409,42.1570091 74.6198868,40.6263014 76.8594065,38.7372656 C79.9658369,35.594445 81.9882764,31.3283059 82.6821575,25.6986304 L82.6821575,24.0897883 C82.6553749,23.5323083 82.5591689,23.0435139 82.3998829,22.6219515 C82.140162,21.6243749 81.4610819,20.2684702 80.837329,19.5449092 C79.0724959,17.5094168 74.6625276,15.4244998 74.1600012,12.9532718 C73.4809211,9.61311639 77.6205965,5.33425773 79.5584593,7.97265707 C80.456734,9.19773203 79.4619009,11.2841026 79.2744227,12.6618123 L79.2744227,12.8082689"></path>
            </g>
        </g>
    </g>
</svg>